Coordinates
version=1
nRows=60
nColumns=12
inDegrees=yes

Units are S.I. units (second, meters, Newtons, ...)
Angles are in degrees

endheader
time	SC_y	SC_z	SC_x	AC_y	AC_z	AC_x	GH_y	GH_z	GH_yy	EL_x	PS_y
       0.0              -33.83          11.05          58.45          54.98         -13.27           7.15          33.68          45.26          147.0          29.48          139.1
   0.04235              -33.82          11.05          58.45          54.98         -13.27           7.15          33.65          45.25          147.0          29.48          139.1
   0.08469              -33.82          11.06          58.44          54.98         -13.27          7.149          33.63          45.24          147.0          29.48          139.1
     0.127              -33.82          11.06          58.44          54.97         -13.28          7.149          33.59          45.23          147.0          29.48          139.1
    0.1694              -33.81          11.06          58.44          54.97         -13.28          7.149          33.56          45.22          146.9          29.48          139.0
    0.2117              -33.81          11.06          58.43          54.97         -13.28          7.148          33.53          45.21          146.9          29.48          139.0
    0.2541              -33.81          11.07          58.43          54.96         -13.28          7.148          33.49           45.2          146.9          29.47          139.0
    0.2964               -33.8          11.07          58.43          54.96         -13.28          7.148          33.45          45.19          146.9          29.47          139.0
    0.3388               -33.8          11.07          58.42          54.95         -13.28          7.147          33.41          45.17          146.8          29.47          139.0
    0.3811              -33.79          11.08          58.42          54.95         -13.28          7.147          33.36          45.16          146.8          29.47          138.9
    0.4235              -33.79          11.08          58.41          54.94         -13.28          7.147          33.31          45.14          146.7          29.46          138.9
    0.4658              -33.78          11.08          58.41          54.94         -13.29          7.146          33.26          45.13          146.7          29.46          138.9
    0.5082              -33.78          11.09           58.4          54.93         -13.29          7.146           33.2          45.11          146.7          29.46          138.9
    0.5505              -33.77          11.09          58.39          54.93         -13.29          7.145          33.14          45.09          146.6          29.45          138.8
    0.5928              -33.77           11.1          58.39          54.92         -13.29          7.145          33.07          45.07          146.6          29.45          138.8
    0.6352              -33.76           11.1          58.38          54.91         -13.29          7.144           33.0          45.04          146.5          29.45          138.8
    0.6775              -33.75          11.11          58.37           54.9          -13.3          7.144          32.92          45.02          146.4          29.44          138.7
    0.7199              -33.74          11.12          58.36           54.9          -13.3          7.143          32.84          44.99          146.4          29.44          138.7
    0.7622              -33.73          11.12          58.35          54.89          -13.3          7.142          32.74          44.96          146.3          29.43          138.6
    0.8046              -33.72          11.13          58.34          54.88          -13.3          7.141          32.64          44.93          146.2          29.42          138.6
    0.8469              -33.71          11.14          58.33          54.87         -13.31           7.14          32.53          44.89          146.1          29.42          138.5
    0.8893               -33.7          11.15          58.32          54.85         -13.31          7.139          32.41          44.85          146.0          29.41          138.5
    0.9316              -33.69          11.16          58.31          54.84         -13.31          7.138          32.27          44.81          145.9           29.4          138.4
     0.974              -33.67          11.17          58.29          54.82         -13.32          7.137          32.12          44.76          145.8           29.4          138.3
     1.016              -33.65          11.18          58.27          54.81         -13.32          7.136          31.95          44.71          145.7          29.39          138.2
     1.059              -33.64           11.2          58.26          54.79         -13.33          7.134          31.76          44.65          145.5          29.37          138.2
     1.101              -33.62          11.21          58.23          54.77         -13.33          7.132          31.55          44.58          145.4          29.36          138.1
     1.143              -33.59          11.23          58.21          54.74         -13.34           7.13          31.32           44.5          145.2          29.35          137.9
     1.186              -33.57          11.25          58.18          54.72         -13.35          7.128          31.05          44.42          145.0          29.33          137.8
     1.228              -33.54          11.27          58.15          54.69         -13.36          7.126          30.74          44.32          144.7          29.32          137.6
      1.27               -33.5           11.3          58.12          54.65         -13.37          7.123           30.4          44.21          144.5           29.3          137.5
     1.313              -33.46          11.33          58.08          54.61         -13.38           7.12           30.0          44.08          144.2          29.27          137.3
     1.355              -33.42          11.36          58.03          54.56         -13.39          7.116          29.54          43.94          143.8          29.25          137.1
     1.397              -33.36           11.4          57.98          54.51         -13.41          7.112          29.01          43.77          143.4          29.22          136.8
      1.44               -33.3          11.45          57.92          54.45         -13.43          7.106          28.38          43.57          142.9          29.18          136.5
     1.482              -33.23          11.51          57.84          54.37         -13.45            7.1          27.65          43.33          142.3          29.14          136.1
     1.524              -33.14          11.57          57.76          54.29         -13.47          7.093          26.77          43.05          141.6          29.09          135.7
     1.567              -33.04          11.65          57.65          54.18          -13.5          7.085          25.73          42.72          140.8          29.03          135.2
     1.609              -32.91          11.75          57.52          54.05         -13.54          7.074          24.46          42.31          139.8          28.96          134.5
     1.651              -32.76          11.86          57.37           53.9         -13.58          7.062          22.91          41.81          138.6          28.87          133.8
     1.694              -32.57          12.01          57.18           53.7         -13.64          7.046           21.0           41.2          137.1          28.76          132.8
     1.736              -32.33          12.19          56.94          53.46         -13.71          7.027          18.62          40.44          135.3          28.63          131.6
     1.779              -32.04          12.41          56.64          53.16          -13.8          7.002          15.61          39.48          132.9          28.46          130.1
     1.821              -31.66           12.7          56.25          52.78         -13.91          6.971           11.8          38.26          129.9          28.24          128.2
     1.863              -31.17          13.07          55.76          52.29         -14.05          6.931          6.911           36.7          126.1          27.96          125.8
     1.906              -30.55          13.54          55.13          51.66         -14.23           6.88         0.6421          34.69          121.2           27.6          122.7
     1.948              -29.76          14.15          54.33          50.85         -14.46          6.815         -7.366          32.13          114.9          27.15          118.7
      1.99              -28.76           14.9          53.32          49.84         -14.75          6.733         -17.43          28.91          107.1          26.58          113.7
     2.033              -27.54          15.83          52.09           48.6         -15.11          6.632         -29.71          24.98          97.47          25.88          107.6
     2.075              -26.13           16.9          50.66          47.17         -15.52          6.516         -43.93          20.43          86.34          25.07          100.6
     2.117              -24.61          18.06          49.11          45.62         -15.96          6.391         -59.33          15.51           74.3          24.19          92.95
      2.16              -23.08          19.22          47.57          44.07         -16.41          6.265         -74.73          10.58          62.26          23.32          85.31
     2.202              -21.67          20.29          46.14          42.64         -16.82          6.149         -88.95          6.032          51.14          22.51          78.25
     2.244              -20.45          21.22          44.91           41.4         -17.18          6.049         -101.2          2.107          41.54          21.81          72.16
     2.287              -19.46          21.97           43.9          40.39         -17.47          5.966         -111.3         -1.114          33.67          21.24          67.16
     2.329              -18.66          22.58           43.1          39.59          -17.7          5.901         -119.3         -3.676           27.4          20.78          63.19
     2.371              -18.04          23.05          42.47          38.95         -17.88           5.85         -125.6         -5.681           22.5          20.43          60.07
     2.414              -17.56          23.42          41.98          38.46         -18.02           5.81         -130.5         -7.244          18.68          20.15          57.65
     2.456              -17.18          23.71          41.59          38.08         -18.13          5.779         -134.3         -8.465           15.7          19.93          55.76
     2.498              -16.88          23.93          41.29          37.78         -18.22          5.754         -137.3         -9.425          13.35          19.76          54.27
